<?xml version="1.0" encoding="UTF-8"?>
<!DOCTYPE svg PUBLIC "-//W3C//DTD SVG 1.1//EN" "http://www.w3.org/Graphics/SVG/1.1/DTD/svg11.dtd">
<!-- Creator: CorelDRAW 2019 (64-Bit) -->
<svg xmlns="http://www.w3.org/2000/svg" xml:space="preserve" width="210mm" height="846.667mm" version="1.1" style="shape-rendering:geometricPrecision; text-rendering:geometricPrecision; image-rendering:optimizeQuality; fill-rule:evenodd; clip-rule:evenodd"
viewBox="0 0 21000 84666.66"
 xmlns:xlink="http://www.w3.org/1999/xlink"
 xmlns:xodm="http://www.corel.com/coreldraw/odm/2003">
 <defs>
  <style type="text/css">
   <![CDATA[
    .fil0 {fill:#1976D2;fill-rule:nonzero}
    .fil1 {fill:#FAFAFA;fill-rule:nonzero}
   ]]>
  </style>
 </defs>
 <g id="Layer_x0020_1">
  <metadata id="CorelCorpID_0Corel-Layer"/>
  <g id="facebook.svg">
   <path class="fil0" d="M7926.63 56860.23l-354.94 0c-32.62,0 -59.15,26.53 -59.15,59.15l0 354.94c0,32.62 26.53,59.15 59.15,59.15l354.94 0c32.62,0 59.15,-26.53 59.15,-59.15l0 -354.94c0,-32.62 -26.53,-59.15 -59.15,-59.15z"/>
   <path class="fil1" d="M7911.84 57096.85l-73.95 0 0 -59.16c0,-16.32 13.25,-14.78 29.58,-14.78l29.58 0 0 -73.95 -59.16 0 0 0c-49.01,0 -88.73,39.73 -88.73,88.73l0 59.16 -59.16 0 0 73.94 59.16 0 0 162.68 88.73 0 0 -162.68 44.37 0 29.58 -73.94z"/>
   <g>
   </g>
   <g>
   </g>
   <g>
   </g>
   <g>
   </g>
   <g>
   </g>
   <g>
   </g>
   <g>
   </g>
   <g>
   </g>
   <g>
   </g>
   <g>
   </g>
   <g>
   </g>
   <g>
   </g>
   <g>
   </g>
   <g>
   </g>
   <g>
   </g>
  </g>
 </g>
 <g id="Layer_x0020_1_0">
  <metadata id="CorelCorpID_1Corel-Layer"/>
 </g>
</svg>
