<?xml version="1.0" encoding="UTF-8"?>
<!DOCTYPE svg PUBLIC "-//W3C//DTD SVG 1.1//EN" "http://www.w3.org/Graphics/SVG/1.1/DTD/svg11.dtd">
<!-- Creator: CorelDRAW 2019 (64-Bit) -->
<svg xmlns="http://www.w3.org/2000/svg" xml:space="preserve" width="210mm" height="846.667mm" version="1.1" style="shape-rendering:geometricPrecision; text-rendering:geometricPrecision; image-rendering:optimizeQuality; fill-rule:evenodd; clip-rule:evenodd"
viewBox="0 0 21000 84666.66"
 xmlns:xlink="http://www.w3.org/1999/xlink"
 xmlns:xodm="http://www.corel.com/coreldraw/odm/2003">
 <defs>
  <style type="text/css">
   <![CDATA[
    .fil0 {fill:#1976D2;fill-rule:nonzero}
   ]]>
  </style>
 </defs>
 <g id="Layer_x0020_1">
  <metadata id="CorelCorpID_0Corel-Layer"/>
  <g id="linkedin.svg">
   <g>
    <rect class="fil0" x="8987.65" y="57002.88" width="108.51" height="333.59"/>
    <path class="fil0" d="M9391.72 57006.79c-1.16,-0.36 -2.25,-0.75 -3.46,-1.09 -1.46,-0.33 -2.91,-0.6 -4.4,-0.85 -5.76,-1.15 -12.07,-1.97 -19.47,-1.97l0 0 0 0c-63.26,0 -103.38,46.01 -116.6,63.78l0 -63.78 -108.51 0 0 333.59 108.51 0 0 -181.96c0,0 82,-114.21 116.6,-30.32 0,74.87 0,212.28 0,212.28l108.48 0 0 -225.11c0,-50.4 -34.54,-92.41 -81.15,-104.57z"/>
    <circle class="fil0" cx="9040.72" cy="56904.32" r="53.07"/>
   </g>
   <g>
   </g>
   <g>
   </g>
   <g>
   </g>
   <g>
   </g>
   <g>
   </g>
   <g>
   </g>
   <g>
   </g>
   <g>
   </g>
   <g>
   </g>
   <g>
   </g>
   <g>
   </g>
   <g>
   </g>
   <g>
   </g>
   <g>
   </g>
   <g>
   </g>
  </g>
 </g>
 <g id="Layer_x0020_1_0">
  <metadata id="CorelCorpID_1Corel-Layer"/>
 </g>
</svg>
