<?xml version="1.0" encoding="UTF-8"?>
<!DOCTYPE svg PUBLIC "-//W3C//DTD SVG 1.1//EN" "http://www.w3.org/Graphics/SVG/1.1/DTD/svg11.dtd">
<!-- Creator: CorelDRAW 2019 (64-Bit) -->
<svg xmlns="http://www.w3.org/2000/svg" xml:space="preserve" width="210mm" height="846.667mm" version="1.1" style="shape-rendering:geometricPrecision; text-rendering:geometricPrecision; image-rendering:optimizeQuality; fill-rule:evenodd; clip-rule:evenodd"
viewBox="0 0 21000 84666.66"
 xmlns:xlink="http://www.w3.org/1999/xlink"
 xmlns:xodm="http://www.corel.com/coreldraw/odm/2003">
 <defs>
  <style type="text/css">
   <![CDATA[
    .fil2 {fill:url(#id0);fill-rule:nonzero}
    .fil0 {fill:url(#id1);fill-rule:nonzero}
    .fil1 {fill:url(#id2);fill-rule:nonzero}
   ]]>
  </style>
  <linearGradient id="id0" gradientUnits="userSpaceOnUse" x1="8432.81" y1="56491.44" x2="8432.84" y2="56491.41">
   <stop offset="0" style="stop-opacity:1; stop-color:#FFC107"/>
   <stop offset="0.509804" style="stop-opacity:1; stop-color:#F44336"/>
   <stop offset="0.988235" style="stop-opacity:1; stop-color:#9C27B0"/>
   <stop offset="1" style="stop-opacity:1; stop-color:#9C27B0"/>
  </linearGradient>
  <linearGradient id="id1" gradientUnits="userSpaceOnUse" xlink:href="#id0" x1="8432.5" y1="56491.75" x2="8432.9" y2="56491.38">
  </linearGradient>
  <linearGradient id="id2" gradientUnits="userSpaceOnUse" xlink:href="#id0" x1="8432.61" y1="56491.64" x2="8432.78" y2="56491.47">
  </linearGradient>
 </defs>
 <g id="Layer_x0020_1">
  <metadata id="CorelCorpID_0Corel-Layer"/>
  <g id="instagram.svg">
   <path class="fil0" d="M8572.93 56863.22l-176.34 0c-81.15,0 -146.96,65.81 -146.96,146.96l0 176.34c0,81.15 65.81,146.96 146.96,146.96l176.34 0c81.15,0 146.96,-65.81 146.96,-146.96l0 -176.34c0,-81.15 -65.81,-146.96 -146.96,-146.96zm102.87 323.3c0,56.73 -46.14,102.87 -102.87,102.87l-176.34 0c-56.73,0 -102.87,-46.14 -102.87,-102.87l0 -176.34c0,-56.73 46.14,-102.87 102.87,-102.87l176.34 0c56.73,0 102.87,46.14 102.87,102.87l0 176.34z"/>
   <path class="fil1" d="M8484.76 56980.79c-64.92,0 -117.56,52.64 -117.56,117.56 0,64.92 52.64,117.56 117.56,117.56 64.92,0 117.56,-52.64 117.56,-117.56 0,-64.92 -52.64,-117.56 -117.56,-117.56zm0 191.04c-40.5,0 -73.48,-32.98 -73.48,-73.48 0,-40.53 32.98,-73.48 73.48,-73.48 40.5,0 73.48,32.95 73.48,73.48 0,40.5 -32.98,73.48 -73.48,73.48z"/>
   <circle class="fil2" cx="8611.14" cy="56971.97" r="15.67"/>
   <g>
   </g>
   <g>
   </g>
   <g>
   </g>
   <g>
   </g>
   <g>
   </g>
   <g>
   </g>
   <g>
   </g>
   <g>
   </g>
   <g>
   </g>
   <g>
   </g>
   <g>
   </g>
   <g>
   </g>
   <g>
   </g>
   <g>
   </g>
   <g>
   </g>
  </g>
 </g>
 <g id="Layer_x0020_1_0">
  <metadata id="CorelCorpID_1Corel-Layer"/>
 </g>
</svg>
