<?xml version="1.0" encoding="UTF-8"?>
<!DOCTYPE svg PUBLIC "-//W3C//DTD SVG 1.1//EN" "http://www.w3.org/Graphics/SVG/1.1/DTD/svg11.dtd">
<!-- Creator: CorelDRAW 2019 (64-Bit) -->
<svg xmlns="http://www.w3.org/2000/svg" xml:space="preserve" width="210mm" height="846.667mm" version="1.1" style="shape-rendering:geometricPrecision; text-rendering:geometricPrecision; image-rendering:optimizeQuality; fill-rule:evenodd; clip-rule:evenodd"
viewBox="0 0 21000 84666.66"
 xmlns:xlink="http://www.w3.org/1999/xlink"
 xmlns:xodm="http://www.corel.com/coreldraw/odm/2003">
 <defs>
  <style type="text/css">
   <![CDATA[
    .fil0 {fill:#03A9F4;fill-rule:nonzero}
   ]]>
  </style>
 </defs>
 <g id="Layer_x0020_1">
  <metadata id="CorelCorpID_0Corel-Layer"/>
  <g id="twitter.svg">
   <path class="fil0" d="M10194.28 56951.32c-17.27,7.58 -35.68,12.6 -54.87,15.04 19.74,-11.79 34.81,-30.31 41.89,-52.64 -18.4,10.98 -38.73,18.73 -60.39,23.06 -17.47,-18.62 -42.38,-30.14 -69.56,-30.14 -52.72,0 -95.17,42.79 -95.17,95.25 0,7.55 0.64,14.81 2.21,21.72 -79.17,-3.86 -149.23,-41.81 -196.29,-99.61 -8.21,14.26 -13.03,30.57 -13.03,48.14 0,32.98 16.98,62.21 42.3,79.14 -15.3,-0.29 -30.31,-4.73 -43.03,-11.73 0,0.29 0,0.67 0,1.04 0,46.28 33.01,84.72 76.3,93.58 -7.75,2.12 -16.2,3.13 -24.97,3.13 -6.1,0 -12.25,-0.35 -18.03,-1.62 12.34,37.71 47.35,65.44 88.99,66.34 -32.4,25.34 -73.54,40.61 -118.08,40.61 -7.81,0 -15.3,-0.35 -22.79,-1.3 42.18,27.2 92.18,42.73 146.09,42.73 175.24,0 271.05,-145.16 271.05,-270.99 0,-4.21 -0.15,-8.27 -0.35,-12.31 18.9,-13.41 34.78,-30.16 47.73,-49.44z"/>
   <g>
   </g>
   <g>
   </g>
   <g>
   </g>
   <g>
   </g>
   <g>
   </g>
   <g>
   </g>
   <g>
   </g>
   <g>
   </g>
   <g>
   </g>
   <g>
   </g>
   <g>
   </g>
   <g>
   </g>
   <g>
   </g>
   <g>
   </g>
   <g>
   </g>
  </g>
 </g>
 <g id="Layer_x0020_1_0">
  <metadata id="CorelCorpID_1Corel-Layer"/>
 </g>
</svg>
