<?xml version="1.0" encoding="UTF-8"?>
<!DOCTYPE svg PUBLIC "-//W3C//DTD SVG 1.1//EN" "http://www.w3.org/Graphics/SVG/1.1/DTD/svg11.dtd">
<!-- Creator: CorelDRAW 2019 (64-Bit) -->
<svg xmlns="http://www.w3.org/2000/svg" xml:space="preserve" width="210mm" height="846.667mm" version="1.1" style="shape-rendering:geometricPrecision; text-rendering:geometricPrecision; image-rendering:optimizeQuality; fill-rule:evenodd; clip-rule:evenodd"
viewBox="0 0 21000 84666.66"
 xmlns:xlink="http://www.w3.org/1999/xlink"
 xmlns:xodm="http://www.corel.com/coreldraw/odm/2003">
 <defs>
  <style type="text/css">
   <![CDATA[
    .fil0 {fill:#F44336;fill-rule:nonzero}
    .fil1 {fill:#FAFAFA;fill-rule:nonzero}
   ]]>
  </style>
 </defs>
 <g id="Layer_x0020_1">
  <metadata id="CorelCorpID_0Corel-Layer"/>
  <g id="youtube.svg">
   <g>
    <path class="fil0" d="M10973.68 56942.12c-14.98,-26.64 -31.24,-31.55 -64.33,-33.41 -33.07,-2.24 -116.21,-3.17 -188.23,-3.17 -72.16,0 -155.34,0.93 -188.37,3.14 -33.02,1.89 -49.31,6.76 -64.43,33.44 -15.43,26.61 -23.36,72.44 -23.36,153.13 0,0.07 0,0.1 0,0.1 0,0.07 0,0.1 0,0.1l0 0.07c0,80.35 7.93,126.52 23.36,152.85 15.12,26.65 31.37,31.48 64.4,33.72 33.06,1.94 116.24,3.07 188.4,3.07 72.03,0 155.16,-1.13 188.26,-3.03 33.1,-2.25 49.35,-7.08 64.33,-33.72 15.56,-26.33 23.43,-72.51 23.43,-152.85 0,0 0,-0.11 0,-0.18 0,0 0,-0.06 0,-0.1 0,-80.72 -7.87,-126.55 -23.46,-153.16z"/>
    <polygon class="fil1" points="10652.03,57198.88 10652.03,56991.82 10824.58,57095.35 "/>
   </g>
   <g>
   </g>
   <g>
   </g>
   <g>
   </g>
   <g>
   </g>
   <g>
   </g>
   <g>
   </g>
   <g>
   </g>
   <g>
   </g>
   <g>
   </g>
   <g>
   </g>
   <g>
   </g>
   <g>
   </g>
   <g>
   </g>
   <g>
   </g>
   <g>
   </g>
  </g>
 </g>
 <g id="Layer_x0020_1_0">
  <metadata id="CorelCorpID_1Corel-Layer"/>
 </g>
</svg>
